<svg width="30" height="30" viewBox="0 0 20 21" fill="none" xmlns="http://www.w3.org/2000/svg">
<g clip-path="url(#clip0_305_403)" filter="url(#filter0_d_305_403)">
<path d="M13.2344 12.0729C13.1555 12.0732 13.0784 12.0486 13.0143 12.0026L10 9.81724L6.98572 12.0026C6.92133 12.0493 6.84374 12.0743 6.76419 12.074C6.68464 12.0737 6.60723 12.0481 6.54318 12.0009C6.47912 11.9538 6.43173 11.8874 6.40785 11.8116C6.38396 11.7357 6.38484 11.6542 6.41033 11.5788L7.58596 8.0967L4.53908 6.00724C4.47309 5.96203 4.42328 5.89691 4.39693 5.82137C4.37058 5.74584 4.36908 5.66386 4.39264 5.58741C4.41621 5.51096 4.4636 5.44405 4.5279 5.39646C4.59219 5.34886 4.67003 5.32308 4.75002 5.32287H8.50893L9.6433 1.83185C9.66774 1.75648 9.71542 1.69079 9.77951 1.6442C9.84359 1.59761 9.92079 1.57251 10 1.57251C10.0793 1.57251 10.1565 1.59761 10.2205 1.6442C10.2846 1.69079 10.3323 1.75648 10.3567 1.83185L11.4911 5.32404H15.25C15.3301 5.324 15.4081 5.34961 15.4726 5.39711C15.5371 5.44461 15.5847 5.51152 15.6084 5.58803C15.6321 5.66453 15.6307 5.74662 15.6044 5.82227C15.5781 5.89792 15.5282 5.96315 15.4621 6.00841L12.4141 8.0967L13.589 11.5779C13.608 11.6342 13.6134 11.6943 13.6046 11.7531C13.5959 11.812 13.5732 11.8679 13.5386 11.9163C13.5039 11.9646 13.4583 12.004 13.4054 12.0313C13.3525 12.0585 13.2939 12.0728 13.2344 12.0729Z" fill="#FF859B"/>
</g>
<defs>
<filter id="filter0_d_305_403" x="0" y="0.822693" width="20" height="20" filterUnits="userSpaceOnUse" color-interpolation-filters="sRGB">
<feFlood flood-opacity="0" result="BackgroundImageFix"/>
<feColorMatrix in="SourceAlpha" type="matrix" values="0 0 0 0 0 0 0 0 0 0 0 0 0 0 0 0 0 0 127 0" result="hardAlpha"/>
<feOffset dy="4"/>
<feGaussianBlur stdDeviation="2"/>
<feComposite in2="hardAlpha" operator="out"/>
<feColorMatrix type="matrix" values="0 0 0 0 0 0 0 0 0 0 0 0 0 0 0 0 0 0 0.25 0"/>
<feBlend mode="normal" in2="BackgroundImageFix" result="effect1_dropShadow_305_403"/>
<feBlend mode="normal" in="SourceGraphic" in2="effect1_dropShadow_305_403" result="shape"/>
</filter>
<clipPath id="clip0_305_403">
<rect width="12" height="12" fill="white" transform="translate(4 0.822693)"/>
</clipPath>
</defs>
</svg>
